<svg id="Layer_1" data-name="Layer 1" xmlns="http://www.w3.org/2000/svg" viewBox="0 0 1953.78 1953.78"><defs><style>.cls-1{fill:#ff4147;}.cls-2{fill:#f5f5f3;}.cls-3{fill:none;}</style></defs><circle class="cls-1" cx="976.26" cy="976.89" r="873.11"/><path class="cls-2" d="M1609.73,344.05C1440.69,175,1216,81.92,976.89,81.92S513.09,175,344.05,344.05,81.92,737.84,81.92,976.89,175,1440.7,344.05,1609.73s393.78,262.13,632.84,262.13,463.8-93.09,632.84-262.13S1871.86,1216,1871.86,976.89,1778.77,513.09,1609.73,344.05ZM370.84,370.83C532.72,209,748,119.8,976.89,119.8s444.17,89.15,606.05,251c127.86,127.86,210.3,289,239.33,463.89L1575.4,859.39C1520.47,579.12,1273,367,976.89,367S433.48,579,378.44,859.09L131.56,834.42C160.64,659.66,243.05,498.62,370.84,370.83ZM1548.92,976.89c0,315.42-256.61,572-572,572s-572-256.61-572-572,256.61-572,572-572S1548.92,661.47,1548.92,976.89Zm34,606.06c-161.88,161.88-377.11,251-606.05,251s-444.17-89.15-606-251-251-377.12-251-606.06A871.46,871.46,0,0,1,126.13,872l246.15,24.59a612.14,612.14,0,0,0-5.3,80.34c0,336.3,273.6,609.91,609.91,609.91s609.91-273.61,609.91-609.91a612.78,612.78,0,0,0-5.26-80l246.14-24.6a870.88,870.88,0,0,1,6.3,104.64C1834,1205.83,1744.83,1421.06,1582.94,1583Z"/><path class="cls-2" d="M280.39,724.11c45.13,21.79,90.35,12.43,113.13-34.79,19.77-41,6-74.37-27.47-94.65l-18.15,37.6c15.51,10.58,23.79,23.84,14.1,43.9-12,24.87-35.25,24-63.46,10.34-28-13.52-43.18-31.15-31.19-56,9.58-19.85,25.13-21.62,42.73-16.48l18.15-37.61c-36.39-13.19-71.12-3.15-90.78,37.59C214.66,661.22,235.47,702.44,280.39,724.11Z"/><path class="cls-2" d="M378.39,538.56c36.92,33.88,83.85,37,119.47-1.83,35.3-38.46,28.54-85.3-8.38-119.19-36.75-33.73-84-36.47-119.3,2C334.57,458.33,341.65,504.82,378.39,538.56Zm16.92-96c20.4-22.22,44.73-13.74,65.93,5.72,21.36,19.61,31.89,43.14,11.5,65.36-20.56,22.39-44.74,13.73-66.1-5.88C385.44,488.33,374.76,465,395.31,442.59Z"/><polygon class="cls-2" points="682.14 389.68 664.09 360.75 601.49 399.8 531.73 288 496.3 310.11 584.12 450.85 682.14 389.68"/><polygon class="cls-2" points="829.42 336.66 818.7 304.29 748.66 327.49 707.22 202.4 667.58 215.53 719.75 373 829.42 336.66"/><polygon class="cls-2" points="996.04 319.6 993.59 285.58 908.41 291.71 905.97 257.69 978.18 252.49 975.73 218.46 903.52 223.66 901.4 194.26 985.19 188.24 982.74 154.21 857.29 163.24 869.2 328.73 996.04 319.6"/><path class="cls-2" d="M1107.22,339.5c44.61,8.84,73.51-12.87,84.73-50.38L1151,281c-6.33,17.66-17.1,29-38.94,24.68-27.09-5.37-32-28.11-25.94-58.83,6-30.49,19.29-49.63,46.37-44.26,21.62,4.29,27.24,18.88,26.68,37.22l41,8.12c3.63-38.54-14.81-69.63-59.19-78.43-51.42-10.19-86.09,20.3-95.79,69.23C1035.38,287.88,1055.79,329.3,1107.22,339.5Z"/><polygon class="cls-2" points="1286.6 400.1 1343.87 281.43 1387.12 302.29 1401.94 271.58 1277.62 211.59 1262.8 242.3 1306.26 263.27 1248.99 381.95 1286.6 400.1"/><rect class="cls-2" x="1347.79" y="375.1" width="165.9" height="41.77" transform="translate(238.82 1280.94) rotate(-52.06)"/><polygon class="cls-2" points="1490.32 570.81 1651.77 504.77 1623.29 471.1 1514.15 522.09 1513.85 521.74 1582.38 422.73 1553.76 388.9 1461.85 537.15 1490.32 570.81"/><polygon class="cls-2" points="1596.81 758.26 1627.69 743.78 1591.45 666.46 1622.33 651.98 1653.06 717.53 1683.95 703.05 1653.22 637.51 1679.9 624.99 1715.56 701.05 1746.44 686.57 1693.06 572.7 1542.84 643.13 1596.81 758.26"/><path class="cls-2" d="M243.09,1162.32,237,1121c-18.78-.06-33.08-6.4-36.31-28.44-4-27.32,15.76-39.6,46.75-44.15,30.76-4.52,53.23,1.56,57.24,28.88,3.2,21.81-8.67,32-26.14,37.61l6.07,41.32c37.54-9.49,60.66-37.28,54.09-82-7.62-51.88-48-74.34-97.33-67.09-49.58,7.29-81.78,40.39-74.16,92.27C173.85,1144.35,204,1164.31,243.09,1162.32Z"/><path class="cls-2" d="M389.79,1245.08c-21.85-47.93-67.43-59.53-112.82-38.83-45.6,20.79-66.73,62.82-44.88,110.74,21.66,47.5,67.43,59.52,113,38.73C390.52,1335,411.45,1292.58,389.79,1245.08Zm-126.66,57.76c-12.62-27.66,4.78-46.56,31.17-58.59,26.17-11.94,51.84-12.68,64.46,15,12.51,27.44-4.78,46.55-31,58.49C301.41,1329.75,275.64,1330.28,263.13,1302.84Z"/><polygon class="cls-2" points="505.46 1424.4 430.94 1488.98 430.64 1488.63 467.17 1380.22 439.82 1348.66 314.45 1457.3 341.81 1488.86 416.32 1424.28 416.63 1424.63 380.1 1533.05 407.45 1564.61 532.81 1455.96 505.46 1424.4"/><path class="cls-2" d="M618.6,1513.85c-29.84-19.66-61.27-23.42-81.18,6.81-16.85,25.57-2.69,49.63,16.55,72.31,15.73,18.7,29,31,21.72,42.09-4.6,7-14.89,7.42-27.87-1.13-15.51-10.21-24.72-24.07-15-38.79l-34.87-23c-20.3,30.81-4.92,66.5,31.12,90.25,34.68,22.85,66.19,18.88,83.68-7.66,19.53-29.65-1.78-55.92-23.21-80.32-14.25-16.33-21.19-24.79-15.57-33.31,5.11-7.76,15.42-5.68,25.88,1.21,13.37,8.81,18.2,20.88,12.85,32.36l34.88,23C665.1,1568.94,651,1535.17,618.6,1513.85Z"/><polygon class="cls-2" points="686.7 1599.26 732.24 1615.24 688.62 1739.62 728.03 1753.44 771.65 1629.06 816.98 1644.96 828.27 1612.77 697.99 1567.07 686.7 1599.26"/><path class="cls-2" d="M939.55,1625.33l-78-5.89-12.5,165.42,41.64,3.15,4.36-57.61,25.91,2c35.4,2.68,16.53,52.2,24.11,59.76l43.26,3.27.18-2.32c-9.28-3.49,10.6-66.44-30.27-76.74l0-.46c21-3.08,35-16,36.62-38C997.27,1646.67,976.34,1628.11,939.55,1625.33Zm13.28,55.22c-1.05,13.88-10.3,19.23-27,18l-28.23-2.13,3-39.8,28.22,2.14C945.54,1660,953.88,1666.67,952.83,1680.55Z"/><path class="cls-2" d="M1171,1600.28l-41,8.14,20.65,104c4.2,21.17-3.37,30.72-21.34,34.29s-28.63-2.36-32.83-23.53l-20.65-104-41,8.14,20.65,104c8,40.51,31.27,58.6,80.43,48.85s63.71-35.37,55.66-75.88Z"/><path class="cls-2" d="M1349.34,1632.43c5.89,17.82,4.4,33.39-15.47,43.44-24.64,12.45-42.55-2.41-56.68-30.36-14-27.75-15.37-51,9.27-63.44,19.67-9.94,33.09-1.9,43.94,12.89l37.27-18.84c-20.89-32.59-54.57-45.73-94.94-25.32-46.79,23.65-55.31,69-32.81,113.55,22.6,44.72,64.19,64.77,111,41.12,40.59-20.51,50-55.42,35.71-91.88Z"/><polygon class="cls-2" points="1483.61 1441.06 1460.92 1415.6 1357.87 1507.46 1380.56 1532.92 1416.58 1500.81 1504.28 1599.18 1535.45 1571.39 1447.76 1473.02 1483.61 1441.06"/><rect class="cls-2" x="1541.05" y="1334.7" width="41.76" height="165.88" transform="translate(-509.86 1813.89) rotate(-53.06)"/><path class="cls-2" d="M1677.11,1206.6c-45.35-20.77-91.14-8.83-112.88,38.63-21.94,47.88-.89,89.94,44.46,110.71,45.56,20.87,91.16,9.36,113.1-38.53C1743.53,1270,1722.67,1227.48,1677.11,1206.6Zm13.67,96.61c-12.66,27.63-38.33,26.85-64.69,14.77-26.16-12-43.52-30.91-30.86-58.54,12.56-27.43,38.33-26.85,64.48-14.87C1686.08,1256.65,1703.34,1275.78,1690.78,1303.21Z"/><polygon class="cls-2" points="1788.34 1064.13 1794.31 1022.8 1630.11 999.12 1624.15 1040.45 1721.75 1054.53 1721.68 1054.99 1615.8 1098.32 1609.84 1139.66 1774.04 1163.34 1780 1122 1682.4 1107.93 1682.46 1107.47 1788.34 1064.13"/><path class="cls-2" d="M976.89,447C684.69,447,447,684.69,447,976.89a526.85,526.85,0,0,0,89.6,294.52q10.66,15.9,22.43,31a534.48,534.48,0,0,0,84.81,86.34q16.58,13.42,34.2,25.53a528.53,528.53,0,0,0,143.31,69.25q20.74,6.38,42.19,11.06,14.18,3.11,28.62,5.44,19.9,3.23,40.28,4.93c14.67,1.22,29.5,1.88,44.48,1.88a526.63,526.63,0,0,0,259.37-68q16.58-9.35,32.4-19.82a535,535,0,0,0,67.27-52.76q15.38-14.19,29.62-29.57a533.34,533.34,0,0,0,36.61-44q11.5-15.46,21.91-31.77a526.81,526.81,0,0,0,82.74-284.05C1506.81,684.69,1269.09,447,976.89,447ZM718,1395.37l69.7-32.91,21.45,77.22A491.16,491.16,0,0,1,718,1395.37Zm-36.07-24.64a496.56,496.56,0,0,1-96.35-95.59l97.27-99.7,134.94,131.14Zm37.85-211.94,253.72-64.44,94.23,94.23L854.19,1289.4ZM918.4,1465.64A489,489,0,0,1,852,1453.05l-29.69-106.92,101-47.67L1032.09,1352Zm58.49,3.49c-2.87,0-5.72-.06-8.57-.11l162.43-162.43,81.7,102.41A489.17,489.17,0,0,1,976.89,1469.13Zm268.18-79.67-60.75-76.16L1295.19,1352A494.5,494.5,0,0,1,1245.07,1389.46Zm81.42-66.4-185.58-64.84a18.77,18.77,0,0,0-20.74,5.87c-.38.33-.8.59-1.16,1l-58.77,58.76-93.41-45.91,184.9-87.3L1366,1278A496.77,496.77,0,0,1,1326.49,1323.06Zm62-76.6-176.42-71.94a305.57,305.57,0,0,0,65.19-130.67h-77.66A232.28,232.28,0,0,1,1130.31,1151a204.35,204.35,0,0,1-28.44,18.39l-9.64-9.64a216.54,216.54,0,0,0,91.14-115.94h-84.15a138.94,138.94,0,0,1-64.12,58.81l-5.2-5.2-10.26-10.26-27.07-27.07a18.87,18.87,0,0,0-18-4.94L946,1062.47h0L885,1078a137.57,137.57,0,0,1-44.2-101.07c0-76.08,61.9-138,138-138a137.57,137.57,0,0,1,107.35,51.64h89.7c-33.36-75.86-109-129.07-197-129.07-118.78,0-215.41,96.63-215.41,215.41a213.91,213.91,0,0,0,38.26,122.24l-10.71,2.72h0l-6.08,1.55A229.9,229.9,0,0,1,747,976.89c0-127.59,103.8-231.4,231.4-231.4,97.06,0,180.19,60.14,214.48,145.06h79.46c-37.38-127-155-220.06-293.94-220.06-169,0-306.41,137.45-306.41,306.4A304.11,304.11,0,0,0,709,1122.64l-31.17,7.92c-.4.1-.74.29-1.13.41a18.6,18.6,0,0,0-2,.73c-.55.25-1.06.56-1.58.86a17.16,17.16,0,0,0-1.58,1,18.65,18.65,0,0,0-1.59,1.33c-.32.28-.66.5-1,.8L563.49,1243.81a489.38,489.38,0,0,1-78.84-266.92c0-271.42,220.82-492.24,492.24-492.24s492.24,220.82,492.24,492.24A489.3,489.3,0,0,1,1388.54,1246.46Z"/><path class="cls-3" d="M978.37,745.49c-127.6,0-231.4,103.81-231.4,231.4s103.8,231.4,231.4,231.4c104.29,0,192.48-69.43,221.28-164.44h-16.28c-28.23,86.07-109.23,148.45-204.63,148.45-118.78,0-215.41-96.63-215.41-215.41S860,761.48,978.74,761.48c88,0,163.69,53.21,197,129.07h17.06C1158.56,805.63,1075.43,745.49,978.37,745.49Z"/></svg>