<svg id="Layer_1" data-name="Layer 1" xmlns="http://www.w3.org/2000/svg" viewBox="0 0 5372 1541"><defs><style>.cls-1{fill:#f5f5f3;}.cls-2{fill:#ff5440;}</style></defs><rect class="cls-1" x="1641.72" y="131.98" width="3314.85" height="1211.55"/><rect class="cls-1" x="88.3" y="125.16" width="1339.33" height="1290.93"/><path class="cls-2" d="M2297.92,765.1c34.15,0,55.13-25.86,55.13-74.16s-21-74.15-55.13-74.15c-34.63,0-55.61,25.85-55.61,74.15S2263.29,765.1,2297.92,765.1Z"/><path class="cls-2" d="M2297.92,1207.42c34.15,0,55.13-25.87,55.13-74.16s-21-74.16-55.13-74.16c-34.63,0-55.61,25.86-55.61,74.16S2263.29,1207.42,2297.92,1207.42Z"/><path class="cls-2" d="M2798.38,611.91c-29.76,0-50.74,17.56-50.74,52.2h101.47C2849.11,629.47,2828.13,611.91,2798.38,611.91Z"/><path class="cls-2" d="M4290.48,1133.26c0-48.3-21-74.16-55.13-74.16-34.64,0-55.62,25.86-55.62,74.16s21,74.16,55.62,74.16C4269.49,1207.42,4290.48,1181.55,4290.48,1133.26Z"/><path class="cls-2" d="M3841.22,611.91c-29.75,0-50.73,17.56-50.73,52.2H3892C3892,629.47,3871,611.91,3841.22,611.91Z"/><path class="cls-2" d="M5294.58,71.23H1629.69a25.28,25.28,0,0,0-25.28,25.28V1444.74a25.28,25.28,0,0,0,25.28,25.28H5294.58a25.28,25.28,0,0,0,25.28-25.28V96.51A25.28,25.28,0,0,0,5294.58,71.23ZM1992.1,751.92c46.83,0,64.4-27.8,70.25-66.84h87.82c-7.8,82-58.55,138.56-154.17,138.56-110.26,0-169.29-77.09-169.29-182.46,0-104.9,59-182,169.29-182,95.14,0,145.88,56.6,154.17,137.58h-87.82c-6.34-38-23.91-65.85-70.25-65.85-58.06,0-77.58,44.87-77.58,110.25C1914.52,707,1934,751.92,1992.1,751.92Zm3.9,149.59c95.14,0,145.88,56.6,154.17,137.58h-87.82c-6.34-38-23.91-65.85-70.25-65.85-58.06,0-77.58,44.87-77.58,110.26,0,65.85,19.52,110.74,77.58,110.74,46.83,0,64.4-27.81,70.25-66.84h87.82c-7.8,82-58.55,138.55-154.17,138.55-110.26,0-169.29-77.08-169.29-182.45C1826.71,978.6,1885.74,901.51,1996,901.51Zm301.92,99c82.94,0,133.19,55.13,133.19,132.71S2380.86,1266,2297.92,1266c-83.43,0-133.67-55.12-133.67-132.69S2214.49,1000.55,2297.92,1000.55ZM2164.25,690.94c0-77.57,50.24-132.7,133.67-132.7,82.94,0,133.19,55.13,133.19,132.7s-50.25,132.7-133.19,132.7C2214.49,823.64,2164.25,768.51,2164.25,690.94Zm366.33,317.42v36.1h1c13.17-22.93,37.56-43.91,82-43.91,48.29,0,81,31.72,81,88.8v168.8h-78.06V1114.23c0-37.57-13.17-50.26-39-50.26-29.75,0-46.83,15.14-46.83,49.78v144.4h-78.06V1008.36ZM2453,815.84V467h78.06V815.84Zm109.27,0V467h78.06V815.84Zm786.8-249.79V624.6h-43.42V728c0,28.3,10.24,28.3,43.42,28.3v58.54c-14.14,2.93-26.34,5.37-48.3,5.37-57.08,0-73.18-30.25-73.18-86.35V624.6H3193V566.05h34.63V496.28h78.06v69.77Zm101.44,0V815.84h-78.05V566.05Zm-78.05-64.4c0-22.45,17.08-34.64,39-34.64s39,12.19,39,34.64c0,22.93-17.07,34.63-39,34.63S3372.46,524.58,3372.46,501.65Zm9.28,506.71v143.92c0,37.56,13.17,50.25,39,50.25,29.76,0,46.83-15.12,46.83-49.76V1008.36h78.06v249.79H3467.6V1222h-1c-13.18,22.93-37.57,43.91-82,43.91-48.31,0-81-31.7-81-88.78V1008.36Zm597.05,190.27v58.55c-14.15,2.92-26.35,5.37-48.3,5.37-57.09,0-73.19-30.25-73.19-86.35V1066.91h-34.63v-58.55h34.63V938.6h78.06v69.76h43.43v58.55h-43.43v103.42C3935.36,1198.63,3945.61,1198.63,3978.79,1198.63ZM3844.16,765.1c26.83,0,39.51-12.68,44.39-24.89h77.57c-13.66,50.26-52.69,83.43-120.5,83.43-82.94,0-133.19-54.64-133.19-132.7,0-76.1,49.27-132.7,128.79-132.7,85.38,0,128.8,62.44,128.8,153.19H3790.49C3790.49,746.55,3816.34,765.1,3844.16,765.1Zm-148.78,442.32c31.22,0,42-21,44.4-43.43h76.59c-3.9,59-48.78,102-120.5,102-79,0-128.8-54.63-128.8-132.69,0-77.58,49.76-132.71,126.85-132.71,72.69,0,116.11,42.94,122.45,101h-76.59c-2.44-20-13.18-42.44-44.4-42.44-32.2,0-50.25,27.32-50.25,74.16S3662.69,1207.42,3695.38,1207.42Zm-60.47-391.58H3549l-86.35-249.79h78.06L3591.48,729h1l50.74-162.94h78.06Zm-432.67,192.52v41h1c12.19-27.81,33.66-45.37,61-45.37,6.83,0,12.68,0,21.46,1.95v68.3h-1c-40-7.31-82.45,14.64-82.45,67.81v116.12h-78.06V1008.36ZM3065.67,765.1c31.22,0,42-21,44.4-43.43h76.59c-3.9,59.05-48.78,102-120.5,102-79,0-128.8-54.64-128.8-132.7,0-77.57,49.76-132.7,126.84-132.7,72.7,0,116.12,42.93,122.46,101h-76.59c-2.44-20-13.18-42.44-44.4-42.44-32.2,0-50.25,27.32-50.25,74.15S3033,765.1,3065.67,765.1Zm35.13,433.53v58.55c-14.15,2.92-26.35,5.37-48.3,5.37-57.09,0-73.19-30.25-73.19-86.35V1066.91h-34.63v-58.55h34.63V938.6h78.06v69.76h43.43v58.55h-43.43v103.42C3057.37,1198.63,3067.62,1198.63,3100.8,1198.63ZM2937.9,1085h-73.19c-2.43-20-13.17-30.73-38.54-30.73-22,0-33.17,7.8-33.17,20,0,17.57,15.61,18,54.15,26.35,49.27,10.73,98.07,27.32,98.07,83.92,0,52.68-40,81.46-109.29,81.46-89.28,0-123.43-40-125.87-90.74h73.18c2.44,24.89,19,37.08,49.76,37.08,22,0,34.16-7.31,34.16-21.47,0-21.46-23.42-24.39-62.94-33.17-42.45-9.27-89.28-24.88-89.28-77.09,0-45.37,39-80,109.28-80C2904.23,1000.55,2935.45,1041,2937.9,1085ZM2801.3,765.1c26.83,0,39.52-12.68,44.4-24.89h77.57c-13.66,50.26-52.69,83.43-120.51,83.43-82.94,0-133.18-54.64-133.18-132.7,0-76.1,49.27-132.7,128.8-132.7,85.37,0,128.79,62.44,128.79,153.19H2747.64C2747.64,746.55,2773.49,765.1,2801.3,765.1Zm1278.93,243.26v249.79h-78.06V1008.36ZM4002.17,944c0-22.45,17.08-34.64,39-34.64s39,12.19,39,34.64c0,22.93-17.08,34.63-39,34.63S4002.17,966.9,4002.17,944Zm99.5,189.29c0-77.58,50.25-132.71,133.68-132.71,82.94,0,133.18,55.13,133.18,132.71S4318.29,1266,4235.35,1266C4151.92,1266,4101.67,1210.83,4101.67,1133.26Zm367.31-88.8c13.17-22.93,37.56-43.91,82-43.91,48.3,0,81,31.72,81,88.8v168.8h-78.06V1114.23c0-37.57-13.16-50.26-39-50.26-29.76,0-46.84,15.14-46.84,49.78v144.4h-78.06V1008.36H4468v36.1Z"/><path class="cls-2" d="M863.61,1000.77l44.61-21.21-15.33-15.33L809.46,880.8l-60-60-109,27.69L518.86,879.39l-24,6.1L450.72,896.7l-.16,0h0l-63,16.79L339.8,926.26l219.34,219.33,80-38.07Z"/><path class="cls-2" d="M1393.35,71H109.85a57.78,57.78,0,0,0-57.71,57.71v1283.5a57.78,57.78,0,0,0,57.71,57.71h1283.5a57.78,57.78,0,0,0,57.71-57.71V128.69A57.78,57.78,0,0,0,1393.35,71ZM508.26,1409.23H426.8L312.28,1319.6l-186.13,89.63H112.81v-49.65l398.3-191L291.26,948.7,112.81,1127.16v-71L273.28,895.69a26.32,26.32,0,0,1,4.94-3.88,20,20,0,0,1,1.95-1,21,21,0,0,1,4.18-1.64L364,867.89a426.93,426.93,0,0,1-36.66-173.34c0-236.81,192.67-429.48,429.48-429.48,194.8,0,359.62,130.4,412,308.46H1057.47C1009.4,454.5,892.88,370.2,756.83,370.2,578,370.2,432.48,515.71,432.48,694.55a322.2,322.2,0,0,0,36,148.31q11.64-2.42,23.33-4.63a300,300,0,0,1-36.43-143.68c0-166.48,135.45-301.93,301.93-301.93,123.41,0,229.44,74.58,276.21,180.91H907.83c-35.47-44-89.66-72.38-150.48-72.38-106.64,0-193.4,86.76-193.4,193.4A192.44,192.44,0,0,0,602.58,810.4c11.12-4,148.39-41.74,148.39-41.74a25.16,25.16,0,0,1,23.94,6.59s76,79,82,85a195.05,195.05,0,0,0,69.36-71.85h118A303.38,303.38,0,0,1,936.81,937.13l15,15c1.78-.93,3.57-1.9,5.35-2.88A325.72,325.72,0,0,0,1067,788.4h108.85a426.32,426.32,0,0,1-38.48,104.77l253,129.25v56.38L1113.67,937.44l-4.47,2.12-385,183.11-159.46,75.84-202,96.86Zm843.28,0L1045.8,1110.92,747.48,1409.23h-71l351.36-351.35a29.63,29.63,0,0,1,2.83-2.35c.09-.07,1-.78,1.06-.84a26.16,26.16,0,0,1,3-1.61l1.49-.74a21.67,21.67,0,0,1,2.65-.83,19.55,19.55,0,0,1,1.9-.52,23.8,23.8,0,0,1,2.91-.33,13.08,13.08,0,0,1,4.29,0,16.29,16.29,0,0,1,2.38.27l1.84.49a24.24,24.24,0,0,1,2.76.87l335.46,148.59v54.91L1163,1155.09,1390.39,1377v32.25Z"/></svg>