<svg id="Layer_1" data-name="Layer 1" xmlns="http://www.w3.org/2000/svg" viewBox="0 0 5372 1541"><defs><style>.cls-1{fill:#f8f1ed;}</style></defs><path class="cls-1" d="M5290.81,74.27H1625.92a25.27,25.27,0,0,0-25.28,25.27V1447.78a25.28,25.28,0,0,0,25.28,25.27H5290.81a25.28,25.28,0,0,0,25.28-25.27V99.54A25.27,25.27,0,0,0,5290.81,74.27ZM5265.54,1422.5H1651.19V124.82H5265.54Z"/><path class="cls-1" d="M1992.23,826.68c95.63,0,146.37-56.59,154.17-138.55h-87.82c-5.85,39-23.42,66.84-70.25,66.84-58.06,0-77.57-44.89-77.57-110.75,0-65.38,19.51-110.26,77.57-110.26,46.35,0,63.91,27.8,70.25,65.86h87.82c-8.29-81-59-137.58-154.17-137.58-110.25,0-169.29,77.09-169.29,182C1822.94,749.6,1882,826.68,1992.23,826.68Z"/><path class="cls-1" d="M2294.15,826.68c82.94,0,133.19-55.12,133.19-132.7s-50.25-132.7-133.19-132.7c-83.42,0-133.67,55.13-133.67,132.7S2210.73,826.68,2294.15,826.68Zm0-206.86c34.15,0,55.13,25.87,55.13,74.16s-21,74.16-55.13,74.16c-34.63,0-55.61-25.86-55.61-74.16S2259.52,619.82,2294.15,619.82Z"/><rect class="cls-1" x="2449.24" y="470.04" width="78.06" height="348.83"/><rect class="cls-1" x="2558.51" y="470.04" width="78.06" height="348.83"/><path class="cls-1" d="M2799,826.68c67.81,0,106.84-33.17,120.5-83.42h-77.57c-4.88,12.19-17.57,24.88-44.4,24.88-27.81,0-53.66-18.54-53.66-53.66H2923.4c0-90.75-43.42-153.2-128.79-153.2-79.53,0-128.8,56.59-128.8,132.7C2665.81,772,2716.06,826.68,2799,826.68Zm-4.39-211.74c29.75,0,50.73,17.56,50.73,52.21H2743.87C2743.87,632.5,2764.85,614.94,2794.61,614.94Z"/><path class="cls-1" d="M3062.39,826.68c71.72,0,116.6-42.93,120.5-102H3106.3c-2.44,22.44-13.18,43.42-44.4,43.42-32.69,0-50.25-27.33-50.25-74.16s18-74.16,50.25-74.16c31.22,0,42,22.45,44.4,42.45h76.59c-6.34-58.06-49.76-101-122.45-101-77.09,0-126.85,55.13-126.85,132.7C2933.59,772,2983.35,826.68,3062.39,826.68Z"/><path class="cls-1" d="M3223.82,736.91c0,56.11,16.1,86.36,73.18,86.36,22,0,34.16-2.45,48.31-5.37V759.35c-33.18,0-43.43,0-43.43-28.29V627.63h43.43V569.08h-43.43V499.32h-78.06v69.76h-34.63v58.55h34.63Z"/><ellipse class="cls-1" cx="3407.72" cy="504.69" rx="39.03" ry="34.64"/><rect class="cls-1" x="3368.69" y="569.08" width="78.06" height="249.79"/><polygon class="cls-1" points="3631.14 818.87 3717.49 569.08 3639.43 569.08 3588.69 732.04 3587.72 732.04 3536.98 569.08 3458.92 569.08 3545.27 818.87 3631.14 818.87"/><path class="cls-1" d="M3841.85,826.68c67.82,0,106.84-33.17,120.5-83.42h-77.56c-4.89,12.19-17.57,24.88-44.4,24.88-27.81,0-53.67-18.54-53.67-53.66h179.54c0-90.75-43.43-153.2-128.8-153.2-79.53,0-128.8,56.59-128.8,132.7C3708.66,772,3758.91,826.68,3841.85,826.68Zm-4.39-211.74c29.76,0,50.74,17.56,50.74,52.21H3786.72C3786.72,632.5,3807.7,614.94,3837.46,614.94Z"/><path class="cls-1" d="M1992.23,1269c95.63,0,146.37-56.6,154.17-138.56h-87.82c-5.85,39-23.42,66.84-70.25,66.84-58.06,0-77.57-44.88-77.57-110.75,0-65.37,19.51-110.26,77.57-110.26,46.35,0,63.91,27.81,70.25,65.87h87.82c-8.29-81-59-137.58-154.17-137.58-110.25,0-169.29,77.08-169.29,182C1822.94,1191.92,1882,1269,1992.23,1269Z"/><path class="cls-1" d="M2294.15,1269c82.94,0,133.19-55.13,133.19-132.71s-50.25-132.69-133.19-132.69c-83.42,0-133.67,55.13-133.67,132.69S2210.73,1269,2294.15,1269Zm0-206.87c34.15,0,55.13,25.87,55.13,74.16s-21,74.16-55.13,74.16c-34.63,0-55.61-25.85-55.61-74.16S2259.52,1062.13,2294.15,1062.13Z"/><path class="cls-1" d="M2526.81,1116.78c0-34.64,17.08-49.76,46.83-49.76,25.86,0,39,12.69,39,50.25v143.92h78.06V1092.38c0-57.08-32.68-88.78-81-88.78-44.4,0-68.79,21-82,43.91h-1V1011.4h-78.06v249.79h78.06Z"/><path class="cls-1" d="M2843.38,1103.61c-38.54-8.29-54.15-8.78-54.15-26.35,0-12.19,11.22-20,33.17-20,25.38,0,36.11,10.74,38.54,30.74h73.19c-2.45-43.91-33.67-84.4-113.68-84.4-70.25,0-109.28,34.63-109.28,80,0,52.2,46.83,67.81,89.28,77.08,39.52,8.78,62.94,11.71,62.94,33.17,0,14.15-12.2,21.47-34.16,21.47-30.73,0-47.32-12.2-49.76-37.08h-73.18c2.44,50.74,36.59,90.75,125.87,90.75,69.28,0,109.29-28.79,109.29-81.48C2941.45,1130.92,2892.66,1114.34,2843.38,1103.61Z"/><path class="cls-1" d="M3053.61,941.63h-78.06v69.77h-34.64V1070h34.64v109.28c0,56.1,16.1,86.35,73.18,86.35,21.95,0,34.15-2.44,48.3-5.37v-58.55c-33.18,0-43.42,0-43.42-28.28V1070H3097V1011.4h-43.42Z"/><path class="cls-1" d="M3199.45,1052.38h-1v-41h-78.06v249.79h78.06V1145.08c0-53.18,42.45-75.13,82.45-67.82h1V1009c-8.78-2-14.64-2-21.47-2C3233.11,1007,3211.64,1024.58,3199.45,1052.38Z"/><path class="cls-1" d="M3378,1155.32V1011.4h-78.06v168.8c0,57.08,32.68,88.8,81,88.8,44.39,0,68.78-21,82-43.91h1v36.1h78.06V1011.4h-78.06v144.4c0,34.65-17.07,49.78-46.83,49.78C3391.14,1205.58,3378,1192.89,3378,1155.32Z"/><path class="cls-1" d="M3691.61,1062.13c31.23,0,42,22.45,44.4,42.46h76.6c-6.35-58.07-49.76-101-122.46-101-77.09,0-126.85,55.13-126.85,132.69,0,78.06,49.76,132.71,128.8,132.71,71.72,0,116.6-42.94,120.51-102H3736c-2.44,22.44-13.17,43.42-44.4,43.42-32.68,0-50.25-27.32-50.25-74.16S3659.41,1062.13,3691.61,1062.13Z"/><path class="cls-1" d="M3931.6,941.63h-78.06v69.77H3818.9V1070h34.64v109.28c0,56.1,16.1,86.35,73.18,86.35,22,0,34.15-2.44,48.3-5.37v-58.55c-33.18,0-43.42,0-43.42-28.28V1070H3975V1011.4H3931.6Z"/><rect class="cls-1" x="3998.4" y="1011.4" width="78.06" height="249.79"/><ellipse class="cls-1" cx="4037.43" cy="947" rx="39.03" ry="34.64"/><path class="cls-1" d="M4231.58,1269c82.94,0,133.19-55.13,133.19-132.71s-50.25-132.69-133.19-132.69c-83.43,0-133.68,55.13-133.68,132.69S4148.15,1269,4231.58,1269Zm0-206.87c34.15,0,55.13,25.87,55.13,74.16s-21,74.16-55.13,74.16c-34.64,0-55.62-25.85-55.62-74.16S4196.94,1062.13,4231.58,1062.13Z"/><path class="cls-1" d="M4464.23,1116.78c0-34.64,17.08-49.76,46.84-49.76,25.86,0,39,12.69,39,50.25v143.92h78.06V1092.38c0-57.08-32.69-88.78-81-88.78-44.4,0-68.79,21-82,43.91h-1V1011.4h-78.06v249.79h78.06Z"/><path class="cls-1" d="M1433.58,68H81a25.12,25.12,0,0,0-25.1,25.1V1445.62a25.13,25.13,0,0,0,25.1,25.1H1433.58a25.13,25.13,0,0,0,25.1-25.1V93.05A25.12,25.12,0,0,0,1433.58,68ZM106.12,1138.45,297,947.61,516.8,1167.45l-198.71,95.32a25.38,25.38,0,0,0-17.26,8.27l-194.71,93.38ZM456.26,895.64h0l.16,0,44.14-11.21,24-6.1,121.61-30.88,109-27.69,60,60,83.43,83.43,15.32,15.33-44.6,21.21L644.88,1106.42l-80,38.07L345.5,925.16l47.76-12.73ZM106.12,1420.51,318,1318.5l130.34,102Zm634.67,0,310.71-310.69,318.43,310.69ZM1408.47,1388l-239.8-234,239.8,106.23Zm0-182.65-347.85-154.08a23.58,23.58,0,0,0-2.76-.87l-1.83-.49a16.47,16.47,0,0,0-2.39-.27,13.06,13.06,0,0,0-4.29,0,24,24,0,0,0-2.91.33,19.57,19.57,0,0,0-1.89.52,21.67,21.67,0,0,0-2.65.83l-1.5.74a25.29,25.29,0,0,0-3,1.61c-.09.06-1,.77-1.06.84a28.44,28.44,0,0,0-2.83,2.35L669.78,1420.51h-140l-161.3-126.24,202-96.86,159.45-75.84,385-183.11,4.47-2.12L1408.47,1084Zm0-177.67-265.4-135.58a426.32,426.32,0,0,0,38.48-104.77H1072.69A325.7,325.7,0,0,1,962.85,948.13c-1.79,1-3.58,2-5.36,2.88l-15-15A303.46,303.46,0,0,0,1049.88,787.3h-118a195.21,195.21,0,0,1-69.36,71.85c-5.92-6-82-85-82-85a25.16,25.16,0,0,0-23.94-6.59S619.39,805.27,608.28,809.3a192.37,192.37,0,0,1-38.63-115.85c0-106.64,86.76-193.4,193.4-193.4,60.82,0,115,28.34,150.47,72.38h125.73C992.49,466.1,886.46,391.52,763.05,391.52c-166.49,0-301.94,135.45-301.94,301.93a300.06,300.06,0,0,0,36.44,143.68q-11.7,2.24-23.34,4.63a322.33,322.33,0,0,1-36-148.31c0-178.84,145.51-324.35,324.36-324.35,136,0,252.57,84.3,300.64,203.33h111.36C1122.14,394.37,957.32,264,762.53,264,525.71,264,333,456.64,333,693.45a426.94,426.94,0,0,0,36.67,173.34L290,888.07a33.67,33.67,0,0,0-6.12,2.64,26.06,26.06,0,0,0-4.95,3.88L106.12,1067.44V118.17H1408.47Z"/></svg>