<svg height="14.053" viewBox="0 0 7.598 14.053" width="7.598" xmlns="http://www.w3.org/2000/svg"><path d="m29.389 0h-1.823a3.2 3.2 0 0 0 -3.366 3.458v1.595h-1.836a.287.287 0 0 0 -.287.287v2.31a.287.287 0 0 0 .287.287h1.836v5.83a.286.286 0 0 0 .287.287h2.391a.287.287 0 0 0 .287-.287v-5.83h2.135a.286.286 0 0 0 .287-.287v-2.31a.287.287 0 0 0 -.287-.287h-2.14v-1.353c0-.65.155-.98 1-.98h1.228a.287.287 0 0 0 .286-.287v-2.144a.287.287 0 0 0 -.285-.289z" fill="#fff" transform="translate(-22.077)"/></svg>