<svg height="14.063" viewBox="0 0 17.307 14.063" width="17.307" xmlns="http://www.w3.org/2000/svg"><path d="m17.307 49.665a7.4 7.4 0 0 1 -2.044.56 3.528 3.528 0 0 0 1.561-1.961 7.091 7.091 0 0 1 -2.25.859 3.548 3.548 0 0 0 -6.138 2.426 3.653 3.653 0 0 0 .082.809 10.043 10.043 0 0 1 -7.313-3.711 3.549 3.549 0 0 0 1.095 4.742 3.5 3.5 0 0 1 -1.6-.437v.039a3.564 3.564 0 0 0 2.843 3.486 3.542 3.542 0 0 1 -.93.117 3.137 3.137 0 0 1 -.672-.061 3.582 3.582 0 0 0 3.315 2.472 7.129 7.129 0 0 1 -4.4 1.513 6.646 6.646 0 0 1 -.856-.048 9.989 9.989 0 0 0 5.443 1.592 10.029 10.029 0 0 0 10.1-10.1c0-.157-.005-.308-.013-.459a7.078 7.078 0 0 0 1.777-1.838z" fill="#fff" transform="translate(0 -48)"/></svg>