<svg height="16.485" viewBox="0 0 16.485 16.485" width="16.485" xmlns="http://www.w3.org/2000/svg"><g fill="#fff"><path d="m11.936 0h-7.387a4.555 4.555 0 0 0 -4.549 4.549v7.387a4.554 4.554 0 0 0 4.549 4.549h7.387a4.555 4.555 0 0 0 4.549-4.549v-7.387a4.554 4.554 0 0 0 -4.549-4.549zm3.087 11.936a3.09 3.09 0 0 1 -3.087 3.087h-7.387a3.09 3.09 0 0 1 -3.087-3.087v-7.387a3.09 3.09 0 0 1 3.087-3.086h7.387a3.09 3.09 0 0 1 3.087 3.087v7.387z"/><path d="m45.216 40.97a4.248 4.248 0 1 0 4.248 4.248 4.253 4.253 0 0 0 -4.248-4.248zm0 7.033a2.785 2.785 0 1 1 2.784-2.785 2.788 2.788 0 0 1 -2.784 2.782z" transform="translate(-36.973 -36.975)"/><path d="m119.994 28.251a1.072 1.072 0 1 0 .759.314 1.077 1.077 0 0 0 -.759-.314z" transform="translate(-107.325 -25.496)"/></g></svg>